<svg width="15" height="15" viewBox="0 0 15 15" fill="none" xmlns="http://www.w3.org/2000/svg">
<path d="M13.1393 7.48918C13.1361 8.90819 12.5695 10.2678 11.5641 11.2692C10.5586 12.2705 9.19668 12.8315 7.77768 12.829C6.35868 12.8315 4.99674 12.2705 3.9913 11.2692C2.98586 10.2678 2.41924 8.90819 2.41602 7.48918C2.41729 6.78636 2.55699 6.09067 2.82713 5.44183C3.09727 4.79299 3.49256 4.20371 3.99044 3.70764C4.48832 3.21157 5.07903 2.81843 5.72884 2.55065C6.37866 2.28287 7.07485 2.1457 7.77768 2.14698C8.48051 2.1457 9.1767 2.28287 9.82652 2.55065C10.4763 2.81843 11.067 3.21157 11.5649 3.70764C12.0628 4.20371 12.4581 4.79299 12.7282 5.44183C12.9984 6.09067 13.1381 6.78636 13.1393 7.48918Z" fill="white" stroke="#131313" stroke-width="3.10246"/>
</svg>
