<svg width="19" height="28" viewBox="0 0 19 28" fill="none" xmlns="http://www.w3.org/2000/svg">
<path d="M18.676 6.84221V8.82404C18.676 9.00538 18.614 9.15434 18.4899 9.27092C18.3659 9.3875 18.2074 9.44579 18.0145 9.44579H14.5415C14.2245 11.311 13.3356 12.8266 11.8748 13.9923C10.414 15.1581 8.51212 15.8705 6.16927 16.1296C8.47078 18.4353 11.6336 21.9067 15.6578 26.5439C15.8508 26.7512 15.8783 26.9714 15.7405 27.2045C15.6303 27.4377 15.4304 27.5542 15.141 27.5542H11.1099C10.8894 27.5542 10.7172 27.4765 10.5931 27.3211C6.37599 22.5673 2.9444 18.8692 0.298355 16.2267C0.174321 16.1102 0.112305 15.9677 0.112305 15.7993V13.3317C0.112305 13.1633 0.177767 13.0176 0.308691 12.8946C0.439615 12.7715 0.594657 12.71 0.773816 12.71H3.08911C4.90826 12.71 6.37255 12.4315 7.48196 11.8745C8.59137 11.3175 9.29767 10.5079 9.60086 9.44579H0.773816C0.580875 9.44579 0.422388 9.3875 0.298355 9.27092C0.174321 9.15434 0.112305 9.00538 0.112305 8.82404V6.84221C0.112305 6.66087 0.174321 6.51191 0.298355 6.39533C0.422388 6.27875 0.580875 6.22046 0.773816 6.22046H9.31145C8.5259 4.75676 6.67918 4.02491 3.77129 4.02491H0.773816C0.594657 4.02491 0.439615 3.96338 0.308691 3.84033C0.177767 3.71727 0.112305 3.57155 0.112305 3.40316V0.819015C0.112305 0.637672 0.174321 0.488711 0.298355 0.372133C0.422388 0.255555 0.580875 0.197266 0.773816 0.197266H17.9731C18.1661 0.197266 18.3245 0.255555 18.4486 0.372133C18.5726 0.488711 18.6346 0.637672 18.6346 0.819015V2.80084C18.6346 2.98219 18.5726 3.13115 18.4486 3.24772C18.3245 3.3643 18.1661 3.42259 17.9731 3.42259H13.1565C13.8042 4.21273 14.2452 5.14536 14.4795 6.22046H18.0145C18.2074 6.22046 18.3659 6.27875 18.4899 6.39533C18.614 6.51191 18.676 6.66087 18.676 6.84221Z" fill="#131313"/>
</svg>
