<svg width="25" height="32" viewBox="0 0 25 32" fill="none" xmlns="http://www.w3.org/2000/svg">
<path d="M21.4653 10.8623H19.9982V7.92814C19.9982 3.87902 16.712 0.592773 12.6629 0.592773C8.61374 0.592773 5.32749 3.87902 5.32749 7.92814V10.8623H3.86042C2.24664 10.8623 0.92627 12.1827 0.92627 13.7964V28.4672C0.92627 30.081 2.24664 31.4013 3.86042 31.4013H21.4653C23.0791 31.4013 24.3995 30.081 24.3995 28.4672V13.7964C24.3995 12.1827 23.0791 10.8623 21.4653 10.8623ZM12.6629 24.066C11.0491 24.066 9.72871 22.7456 9.72871 21.1318C9.72871 19.518 11.0491 18.1977 12.6629 18.1977C14.2766 18.1977 15.597 19.518 15.597 21.1318C15.597 22.7456 14.2766 24.066 12.6629 24.066ZM17.2108 10.8623H8.11493V7.92814C8.11493 5.41945 10.1542 3.38021 12.6629 3.38021C15.1716 3.38021 17.2108 5.41945 17.2108 7.92814V10.8623Z" fill="white"/>
</svg>
